<?xml version="1.0" standalone="no"?>
<!DOCTYPE svg PUBLIC "-//W3C//DTD SVG 20010904//EN"
 "http://www.w3.org/TR/2001/REC-SVG-20010904/DTD/svg10.dtd">
<svg version="1.0" xmlns="http://www.w3.org/2000/svg"
 width="1920.000000pt" height="1080.000000pt" viewBox="0 0 1920.000000 1080.000000"
 preserveAspectRatio="xMidYMid meet">

<g transform="translate(0.000000,1080.000000) scale(0.100000,-0.100000)"
fill="#000000" stroke="none">
<path d="M3145 8440 c-172 -15 -399 -66 -559 -127 -105 -40 -352 -150 -451
-201 -345 -177 -708 -526 -1078 -1035 -547 -752 -860 -1703 -834 -2532 21
-665 150 -1052 438 -1319 133 -123 270 -199 484 -269 229 -75 392 -106 601
-114 409 -16 845 92 1243 306 149 81 183 103 296 196 167 137 223 209 231 297
7 76 -15 114 -85 142 -96 38 -99 49 -92 341 4 148 -4 175 -64 220 -45 35 -149
71 -265 90 -170 30 -276 3 -503 -129 -81 -47 -173 -93 -205 -102 -85 -26 -229
-23 -311 5 -212 73 -335 239 -362 491 -35 327 123 860 379 1274 63 103 209
299 317 426 172 203 352 333 550 399 208 68 276 49 306 -86 9 -41 9 -65 1
-105 -22 -99 -31 -203 -22 -273 30 -263 198 -358 555 -314 302 37 614 229 729
448 45 86 99 228 135 354 106 371 104 673 -8 964 -106 274 -309 461 -621 571
-229 80 -496 107 -805 82z"/>
<path d="M7130 8443 c-408 -25 -968 -208 -1326 -432 -202 -128 -397 -297 -631
-550 -333 -359 -556 -686 -769 -1126 -227 -471 -361 -923 -431 -1460 -22 -171
-25 -608 -4 -750 53 -368 117 -563 251 -760 121 -178 268 -299 480 -399 253
-117 486 -160 875 -160 308 0 473 20 744 89 472 120 984 416 1346 779 252 252
383 421 480 621 264 545 271 1091 17 1342 -67 66 -162 113 -297 147 -338 85
-690 52 -1125 -106 -222 -80 -283 -111 -352 -180 -77 -77 -114 -152 -133 -274
-15 -95 43 -194 122 -208 54 -10 106 -39 187 -105 151 -122 244 -172 356 -190
80 -13 173 0 249 35 29 13 55 24 57 24 12 0 -13 -62 -43 -108 -106 -157 -400
-362 -626 -436 -149 -48 -231 -61 -397 -61 -132 0 -167 3 -235 23 -104 30
-255 103 -305 148 -45 41 -112 142 -139 212 -27 67 -44 196 -37 267 9 79 65
290 116 438 100 292 281 564 575 866 203 208 383 344 578 436 152 72 210 88
317 89 107 1 157 -15 223 -74 38 -33 98 -145 123 -230 18 -59 72 -111 154
-148 92 -42 150 -53 275 -54 289 -1 554 141 668 360 106 203 189 603 172 827
-25 313 -143 598 -316 760 -279 262 -684 379 -1199 348z"/>
<path d="M18766 6196 c-122 -45 -187 -164 -172 -310 7 -67 31 -124 81 -189
l34 -44 -37 -11 c-129 -38 -434 -41 -792 -7 -482 44 -536 47 -760 42 -185 -4
-239 -8 -301 -25 -104 -28 -211 -84 -266 -138 -148 -149 -133 -410 30 -497 59
-30 175 -31 233 0 202 107 202 418 1 520 l-51 25 26 14 c79 41 377 56 645 33
71 -6 129 -12 131 -14 1 -1 -20 -85 -47 -186 -27 -101 -149 -557 -271 -1014
-137 -515 -233 -856 -252 -898 -57 -124 -146 -177 -323 -193 -63 -6 -75 -10
-75 -25 0 -9 -2 -23 -5 -31 -4 -11 104 -13 625 -13 582 0 630 1 630 17 0 9 2
23 5 30 5 11 -13 17 -74 25 -161 21 -217 74 -206 193 3 36 121 498 269 1050
l263 985 219 6 c377 11 572 65 704 198 148 147 130 367 -37 446 -51 25 -175
30 -227 11z"/>
<path d="M12815 5527 c-71 -100 -211 -297 -310 -437 -700 -986 -1008 -1418
-1069 -1500 -99 -133 -188 -220 -266 -259 -62 -30 -78 -47 -79 -81 -1 -13 44
-15 342 -15 223 0 345 3 349 10 4 5 8 19 8 31 0 18 -9 22 -75 31 -146 21 -205
71 -205 173 0 82 41 157 237 435 l169 240 376 3 377 2 5 -42 c9 -73 26 -437
26 -553 0 -95 -3 -117 -22 -155 -31 -60 -83 -88 -193 -103 -69 -9 -85 -15 -85
-28 0 -10 -2 -23 -5 -31 -4 -11 85 -13 510 -13 337 0 515 3 515 10 0 6 3 20 6
32 5 17 0 22 -25 28 -65 14 -113 73 -131 162 -5 26 -39 509 -75 1073 -35 564
-67 1058 -71 1098 l-6 72 -86 0 -87 0 -130 -183z m-172 -774 c10 -214 21 -418
24 -455 l6 -68 -348 0 c-291 0 -346 2 -342 14 3 7 128 186 278 397 150 211
291 410 313 442 22 31 43 57 46 57 3 0 14 -174 23 -387z"/>
<path d="M8715 5675 c-15 -53 -16 -52 51 -59 76 -8 111 -20 142 -48 30 -29 30
-112 -2 -243 -52 -212 -455 -1703 -476 -1758 -53 -141 -120 -214 -228 -247
-35 -11 -75 -20 -88 -20 -13 0 -24 -1 -24 -3 0 -1 -4 -16 -9 -32 l-8 -30 361
2 361 1 3 30 3 30 -66 7 c-95 11 -164 48 -193 105 -40 77 -30 149 86 585 55
209 155 589 222 845 67 256 125 471 129 477 4 7 42 -256 86 -585 43 -328 106
-804 139 -1057 l61 -460 39 0 39 0 569 890 c312 490 634 994 715 1122 81 127
149 231 150 229 7 -7 -528 -1969 -547 -2007 -49 -97 -104 -129 -247 -144 -37
-4 -63 -12 -63 -18 0 -7 -3 -21 -6 -32 -5 -20 0 -20 548 -20 357 0 556 4 560
10 4 6 8 20 8 32 0 19 -7 22 -62 28 -35 4 -82 15 -105 25 -34 15 -44 26 -54
58 -16 53 -4 116 76 417 336 1262 427 1598 447 1650 12 33 38 75 58 95 41 41
86 57 187 66 69 7 71 7 77 37 3 17 5 32 3 33 -1 2 -188 0 -414 -3 l-412 -6
-323 -506 c-177 -278 -427 -670 -556 -871 -128 -201 -236 -366 -240 -368 -4
-1 -49 379 -101 845 -52 467 -96 862 -98 878 l-5 30 -395 0 c-262 0 -396 -3
-398 -10z"/>
<path d="M14170 5675 c0 -5 -3 -19 -6 -31 -5 -19 0 -21 59 -27 82 -8 132 -31
152 -73 20 -42 19 -72 -5 -174 -47 -195 -464 -1762 -491 -1844 -52 -159 -100
-200 -255 -219 -70 -8 -84 -13 -84 -28 0 -9 -2 -23 -5 -31 -4 -11 91 -13 551
-11 305 0 557 3 558 5 2 1 6 15 10 31 6 25 4 27 -26 27 -63 0 -150 27 -177 54
-44 44 -36 93 93 581 64 242 119 448 122 458 4 13 16 17 54 17 73 0 208 -29
261 -55 58 -30 115 -95 131 -149 19 -66 12 -206 -20 -446 -34 -248 -33 -311 8
-395 28 -58 98 -119 165 -144 151 -57 369 -46 504 24 71 36 159 139 205 238
20 43 56 146 56 159 0 4 -18 8 -40 8 -23 0 -40 -5 -40 -11 0 -24 -92 -205
-118 -232 -90 -95 -191 -68 -213 58 -9 51 -7 93 20 289 17 126 31 255 31 286
0 212 -148 320 -513 377 l-112 17 110 18 c303 50 543 158 705 318 139 137 197
278 188 461 -4 80 -10 107 -35 160 -72 154 -229 240 -513 280 -109 15 -1330
19 -1330 4z m1137 -76 c70 -26 134 -89 158 -157 22 -61 30 -227 16 -330 -6
-45 -22 -117 -37 -160 -71 -212 -239 -371 -469 -442 -71 -21 -273 -42 -281
-28 -6 10 241 939 267 1004 23 57 69 106 114 122 54 19 169 14 232 -9z"/>
</g>
</svg>
